# xmcd
#
# Track frame offsets:
#	150
#	13898
#	33215
#	50898
#	63402
#	78040
#	94392
#	106081
#	122551
#	138176
#	155095
#	168694
#	182348
#	199585
#	216656
#	233423
#	252351
#	271286
#	287543
#	302889
#	303850
#	304795
#	305757
#	306485
#	307145
#	307840
#	308625
#	309355
#	310080
#	310802
#
# Disc length: 4152 seconds
#
# Revision: 1
# Processed by: cddbd v1.5.2PL0 Copyright (c) Steve Scherf et al.
# Submitted via: audiograbber 1.83.01
#
DISCID=9c10361e
DTITLE=Various Artist - CDX Volume 640 (October 10, 2016)
DYEAR=2016
DGENRE=Country
TTITLE0=Love And Theft - Candyland 
TTITLE1=George Strait - Goin' Goin' Gone
TTITLE2=Kacey Musgraves (featuring Leon Bridges) - Present Without A Bow
TTITLE3=Aubrie Sellers - Sit Here And Cry
TTITLE4=Kelsea Ballerini - Yeah Boy 
TTITLE5=Josh Abbott Band - Amnesia
TTITLE6=Mark Collie - One More Second Chance
TTITLE7=Joe Schmidt - Buck On The Wall
TTITLE8=Bradley Walker - Call Me Old-Fashioned
TTITLE9=Brian Milson - Gonna Be A Song Someday
TTITLE10=Tony Jackson - Nashville Cats
TTITLE11=Tim McDonald - Night Like That
TTITLE12=Wendy Jager - Run
TTITLE13=Band Steele - Tan Lines
TTITLE14=Charlie McCoy and Vince Hatfield - The Hatfields and McCoys
TTITLE15=Jo-El Sonnier and Friends - The Healin' Song 
TTITLE16=Justin Peters - Then I'll Be Over You
TTITLE17=Tyler Hammond - Tough Girl
TTITLE18=Michael Lusk - We're Gonna Find The Cure 
TTITLE19=Sarabeth - Artist Liner - My New Single
TTITLE20=Macy Martin - Artist Liner - My New Single 
TTITLE21=Libby Koch - Artist Liner - My New Single
TTITLE22=Libby Koch - Artist Liner - Today's Best Country
TTITLE23=Libby Koch - Artist Liner - Kickin' Country
TTITLE24=Libby Koch - Artist Liner - Hometown Country
TTITLE25=Libby Koch - Artist Liner - Super Country
TTITLE26=Libby Koch - Artist Liner - Today's Hot Country
TTITLE27=Libby Koch - Artist Liner - Best In Today's Country
TTITLE28=Libby Koch - Artist Liner - More of the Country You Love
TTITLE29=Libby Koch - Artist Liner - Howlin' Country
EXTD=
EXTT0=
EXTT1=
EXTT2=
EXTT3=
EXTT4=
EXTT5=
EXTT6=
EXTT7=
EXTT8=
EXTT9=
EXTT10=
EXTT11=
EXTT12=
EXTT13=
EXTT14=
EXTT15=
EXTT16=
EXTT17=
EXTT18=
EXTT19=
EXTT20=
EXTT21=
EXTT22=
EXTT23=
EXTT24=
EXTT25=
EXTT26=
EXTT27=
EXTT28=
EXTT29=
PLAYORDER=
